<?xml version="1.0" encoding="UTF-8"?><svg id="Layer_1" xmlns="http://www.w3.org/2000/svg" viewBox="0 0 95.25 95.25"><defs><style>.cls-1{fill:#fff;}.cls-2{fill:#ffcf11;}</style></defs><g><path class="cls-2" d="M12.33,1.67H82.92c5.98,0,10.83,4.85,10.83,10.83V83.08c0,5.98-4.85,10.83-10.83,10.83H12.33c-5.98,0-10.83-4.85-10.83-10.83V12.5C1.5,6.52,6.35,1.67,12.33,1.67Z"/><path d="M82.92,3.17c5.15,0,9.33,4.19,9.33,9.33V83.08c0,5.15-4.19,9.33-9.33,9.33H12.33c-5.15,0-9.33-4.19-9.33-9.33V12.5C3,7.35,7.19,3.17,12.33,3.17H82.92m0-3H12.33C5.52,.17,0,5.69,0,12.5V83.08c0,6.81,5.52,12.33,12.33,12.33H82.92c6.81,0,12.33-5.52,12.33-12.33V12.5c0-6.81-5.52-12.33-12.33-12.33h0Z"/></g><g><polygon class="cls-1" points="33.96 43.29 20.12 43.29 65.85 20.55 43.87 40.6 40 71.74 33.96 43.29"/><path d="M56.92,26.66l-13.65,12.46-.82,.75-.14,1.1-2.7,21.72-3.93-18.52-.5-2.38h-8.68l30.42-15.13m17.85-12.23L13.73,44.79h19.01l7.64,35.99,4.91-39.45,29.48-26.9h0Z"/></g><g><path class="cls-1" d="M50.45,72.59c1.04-7.57,2.48-23.72,3.08-30.75l24.35,25.69-15.74-3.57-11.7,8.62Z"/><path d="M54.73,45.29l18.66,19.68-10.25-2.32-1.34-.3-1.1,.81-8.33,6.14c.83-7.02,1.77-17.25,2.36-24.01m-2.42-6.91s-2.72,32.59-3.91,37.29c-.02,.09,.05,.16,.13,.16,.03,0,.05,0,.08-.03l13.87-10.23,19.89,4.51-30.05-31.7h0Z"/></g></svg>