<?xml version="1.0" encoding="UTF-8"?><svg id="Layer_1" xmlns="http://www.w3.org/2000/svg" viewBox="0 0 360.25 96.25"><defs><style>.cls-1{fill:#fff;}.cls-2{fill:#ffcf11;}</style></defs><g><rect class="cls-2" x="2" y="2" width="92.25" height="92.25" rx="10.83" ry="10.83"/><path d="M83.42,3.5c5.15,0,9.33,4.19,9.33,9.33V83.42c0,5.15-4.19,9.33-9.33,9.33H12.83c-5.15,0-9.33-4.19-9.33-9.33V12.83C3.5,7.69,7.69,3.5,12.83,3.5H83.42m0-3H12.83C6.02,.5,.5,6.02,.5,12.83V83.42c0,6.81,5.52,12.33,12.33,12.33H83.42c6.81,0,12.33-5.52,12.33-12.33V12.83c0-6.81-5.52-12.33-12.33-12.33h0Z"/></g><g><polygon class="cls-1" points="34.46 43.63 20.62 43.63 66.35 20.88 44.37 40.94 40.5 72.07 34.46 43.63"/><path d="M57.42,27l-13.65,12.46-.82,.75-.14,1.1-2.7,21.72-3.93-18.52-.5-2.38h-8.68l30.42-15.13m17.85-12.23L14.23,45.13h19.01l7.63,35.99,4.91-39.45,29.48-26.9h0Z"/></g><g><path class="cls-1" d="M50.95,72.92c1.04-7.57,2.48-23.72,3.08-30.75l24.35,25.69-15.74-3.57-11.7,8.62Z"/><path d="M55.23,45.63l18.66,19.68-10.25-2.32-1.34-.3-1.1,.81-8.33,6.14c.83-7.02,1.77-17.25,2.36-24.01m-2.42-6.91s-2.72,32.59-3.91,37.29c-.02,.09,.05,.16,.13,.16,.03,0,.05,0,.08-.03l13.87-10.23,19.89,4.51-30.05-31.7h0Z"/></g><g><path d="M136.39,34.44v5.1h3.55v4.07h-3.55v10.35c0,.77,.15,1.32,.44,1.65,.29,.33,.86,.5,1.69,.5,.61,0,1.16-.04,1.63-.13v4.2c-1.09,.33-2.21,.5-3.36,.5-3.89,0-5.87-1.96-5.94-5.89v-11.18h-3.03v-4.07h3.03v-5.1h5.54Z"/><path d="M141.58,49.72c0-2.06,.4-3.89,1.19-5.5s1.93-2.86,3.42-3.74,3.22-1.32,5.19-1.32c2.8,0,5.08,.86,6.86,2.57,1.77,1.71,2.76,4.04,2.96,6.98l.04,1.42c0,3.18-.89,5.74-2.67,7.66-1.78,1.92-4.16,2.89-7.15,2.89s-5.38-.96-7.16-2.88c-1.78-1.92-2.67-4.52-2.67-7.82v-.25Zm5.54,.39c0,1.97,.37,3.48,1.11,4.52,.74,1.04,1.8,1.57,3.18,1.57s2.39-.52,3.14-1.55c.75-1.03,1.13-2.68,1.13-4.95,0-1.93-.38-3.43-1.13-4.49-.75-1.06-1.82-1.59-3.18-1.59s-2.4,.53-3.14,1.58c-.74,1.06-1.11,2.69-1.11,4.91Z"/><path d="M183.33,50.1c0,3.2-.73,5.76-2.18,7.68-1.45,1.92-3.41,2.89-5.88,2.89-2.1,0-3.79-.73-5.08-2.19v9.78h-5.54v-28.72h5.14l.19,2.03c1.34-1.61,3.09-2.42,5.25-2.42,2.56,0,4.54,.95,5.96,2.84,1.42,1.89,2.13,4.5,2.13,7.82v.29Zm-5.54-.4c0-1.93-.34-3.42-1.03-4.47-.68-1.05-1.68-1.57-2.98-1.57-1.74,0-2.93,.67-3.59,2v8.49c.68,1.37,1.89,2.05,3.62,2.05,2.65,0,3.97-2.17,3.97-6.5Z"/><path d="M208.56,60.28c-.26-.5-.44-1.12-.56-1.86-1.34,1.5-3.09,2.24-5.23,2.24-2.03,0-3.72-.59-5.05-1.76-1.34-1.18-2-2.66-2-4.45,0-2.2,.82-3.89,2.45-5.06,1.63-1.18,3.98-1.77,7.07-1.78h2.55v-1.19c0-.96-.25-1.73-.74-2.3-.49-.58-1.27-.86-2.33-.86-.93,0-1.67,.22-2.2,.67-.53,.45-.8,1.06-.8,1.84h-5.54c0-1.2,.37-2.31,1.11-3.34s1.79-1.83,3.14-2.41c1.36-.58,2.88-.87,4.56-.87,2.56,0,4.58,.64,6.09,1.93,1.5,1.28,2.25,3.09,2.25,5.42v8.99c.01,1.97,.29,3.46,.82,4.47v.33h-5.6Zm-4.58-3.85c.82,0,1.57-.18,2.26-.55s1.2-.85,1.53-1.47v-3.57h-2.07c-2.77,0-4.25,.96-4.43,2.88l-.02,.33c0,.69,.24,1.26,.73,1.71,.49,.45,1.15,.67,1.99,.67Z"/><path d="M226.22,56.2c1.02,0,1.85-.28,2.49-.84,.64-.56,.97-1.31,1-2.24h5.2c-.01,1.41-.4,2.69-1.15,3.86-.75,1.17-1.79,2.08-3.1,2.72-1.31,.65-2.76,.97-4.34,.97-2.97,0-5.3-.94-7.02-2.83s-2.57-4.49-2.57-7.81v-.36c0-3.2,.85-5.75,2.55-7.65s4.03-2.86,7-2.86c2.59,0,4.68,.74,6.24,2.21,1.57,1.48,2.36,3.44,2.39,5.9h-5.2c-.03-1.08-.36-1.96-1-2.63-.64-.67-1.48-1.01-2.53-1.01-1.29,0-2.27,.47-2.92,1.41-.66,.94-.99,2.47-.99,4.58v.58c0,2.14,.33,3.67,.98,4.61,.65,.93,1.64,1.4,2.97,1.4Z"/><path d="M250.09,60.28c-.26-.5-.44-1.12-.56-1.86-1.34,1.5-3.09,2.24-5.23,2.24-2.03,0-3.72-.59-5.05-1.76-1.34-1.18-2-2.66-2-4.45,0-2.2,.82-3.89,2.45-5.06,1.63-1.18,3.98-1.77,7.07-1.78h2.55v-1.19c0-.96-.25-1.73-.74-2.3-.49-.58-1.27-.86-2.33-.86-.93,0-1.67,.22-2.2,.67-.53,.45-.8,1.06-.8,1.84h-5.54c0-1.2,.37-2.31,1.11-3.34s1.79-1.83,3.14-2.41c1.36-.58,2.88-.87,4.56-.87,2.56,0,4.58,.64,6.09,1.93,1.5,1.28,2.25,3.09,2.25,5.42v8.99c.01,1.97,.29,3.46,.82,4.47v.33h-5.6Zm-4.58-3.85c.82,0,1.57-.18,2.26-.55s1.2-.85,1.53-1.47v-3.57h-2.07c-2.77,0-4.25,.96-4.43,2.88l-.02,.33c0,.69,.24,1.26,.73,1.71,.49,.45,1.15,.67,1.99,.67Z"/><path d="M258.26,49.76c0-3.23,.73-5.81,2.18-7.73,1.45-1.92,3.44-2.88,5.95-2.88,2.02,0,3.69,.75,5,2.26v-10.58h5.56v29.45h-5l-.27-2.21c-1.38,1.73-3.16,2.59-5.33,2.59-2.44,0-4.4-.96-5.88-2.89s-2.21-4.6-2.21-8.03Zm5.54,.41c0,1.95,.34,3.44,1.02,4.47s1.66,1.56,2.95,1.56c1.71,0,2.92-.72,3.62-2.17v-8.2c-.69-1.45-1.89-2.17-3.59-2.17-2.67,0-4.01,2.17-4.01,6.51Z"/><path d="M290.8,60.67c-3.04,0-5.52-.93-7.43-2.8s-2.87-4.35-2.87-7.46v-.54c0-2.08,.4-3.95,1.21-5.59,.8-1.64,1.95-2.91,3.42-3.8,1.48-.89,3.16-1.33,5.05-1.33,2.84,0,5.07,.9,6.7,2.68,1.63,1.79,2.44,4.33,2.44,7.61v2.26h-13.21c.18,1.36,.72,2.44,1.62,3.26,.9,.82,2.04,1.23,3.42,1.23,2.13,0,3.8-.77,5-2.32l2.72,3.05c-.83,1.18-1.96,2.09-3.38,2.75-1.42,.66-2.99,.99-4.72,.99Zm-.63-17.05c-1.1,0-1.99,.37-2.67,1.12-.68,.75-1.12,1.81-1.31,3.2h7.71v-.44c-.03-1.23-.36-2.19-1-2.86-.64-.67-1.55-1.01-2.72-1.01Z"/><path d="M307.68,39.54l.17,2.32c1.47-1.8,3.46-2.7,5.96-2.7,2.67,0,4.51,1.05,5.5,3.16,1.46-2.11,3.53-3.16,6.23-3.16,2.25,0,3.92,.66,5.02,1.97,1.1,1.31,1.65,3.28,1.65,5.92v13.25h-5.56v-13.23c0-1.18-.23-2.04-.69-2.58-.46-.54-1.27-.82-2.43-.82-1.66,0-2.81,.79-3.45,2.38l.02,14.25h-5.54v-13.21c0-1.2-.24-2.07-.71-2.61s-1.28-.81-2.42-.81c-1.57,0-2.71,.65-3.41,1.96v14.67h-5.54v-20.75h5.2Z"/><path d="M344.22,52.44l3.83-12.9h5.94l-8.34,23.97-.46,1.09c-1.24,2.71-3.29,4.06-6.14,4.06-.8,0-1.62-.12-2.45-.36v-4.2l.84,.02c1.05,0,1.83-.16,2.35-.48s.92-.85,1.22-1.59l.65-1.71-7.27-20.8h5.96l3.85,12.9Z"/></g></svg>